<?xml version="1.0" standalone="no"?><!DOCTYPE svg PUBLIC "-//W3C//DTD SVG 1.1//EN" "http://www.w3.org/Graphics/SVG/1.1/DTD/svg11.dtd"><svg t="1550049027249" class="icon" style="" viewBox="0 0 1024 1024" version="1.1" xmlns="http://www.w3.org/2000/svg" p-id="3641" data-spm-anchor-id="a313x.7781069.0.i7" xmlns:xlink="http://www.w3.org/1999/xlink" width="128" height="128"><defs><style type="text/css"></style></defs><path d="M490.666667 21.333333C512 32 554.666667 102.4 554.666667 149.333333 554.666667 196.266667 526.08 213.333333 490.666667 213.333333 455.253333 213.333333 426.666667 206.933333 426.666667 160 426.666667 113.066667 469.333333 85.333333 490.666667 21.333333M789.333333 384C896 384 981.333333 469.333333 981.333333 576 981.333333 642.56 947.626667 701.013333 896 735.573333L896 981.333333 512 981.333333 128 981.333333 128 735.573333C76.373333 701.013333 42.666667 642.56 42.666667 576 42.666667 469.333333 128 384 234.666667 384L426.666667 384 426.666667 256 554.666667 256 554.666667 384 789.333333 384M512 682.666667C570.88 682.666667 618.666667 634.88 618.666667 576L682.666667 576C682.666667 634.88 730.453333 682.666667 789.333333 682.666667 848.213333 682.666667 896 634.88 896 576 896 517.12 848.213333 469.333333 789.333333 469.333333L234.666667 469.333333C175.786667 469.333333 128 517.12 128 576 128 634.88 175.786667 682.666667 234.666667 682.666667 293.546667 682.666667 341.333333 634.88 341.333333 576L405.333333 576C405.333333 634.88 453.12 682.666667 512 682.666667Z" p-id="3642" fill="#515151"></path></svg>